{"title":"Paris.Texas.1984.SWESUB.DVDRiP.XViD.AC-3(5.1).avi-Zen_Bud","uid":7187116,"size":1514084159,"categoryP":"video","categoryS":"movies","magnet":"?xt=urn:btih:3f3b41bb0c37e98cd56235fac3acaed2cac2eac0&amp;dn=Paris.Texas.1984.SWESUB.DVDRiP.XViD.AC-3%285.1%29.avi-Zen_Bud&amp;tr=udp%3A%2F%2Ftracker.openbittorrent.com%3A80&amp;tr=udp%3A%2F%2Fopen.demonii.com%3A1337&amp;tr=udp%3A%2F%2Ftracker.coppersurfer.tk%3A6969&amp;tr=udp%3A%2F%2Fexodus.desync.com%3A6969","seeders":2,"leechers":0,"uploader":"Zen_Bud","files":-1,"time":1334480614,"description":"\n\n    Paris.Texas.1984.SWESUB.DVDRiP.XViD.AC-3(5.1).avi-Zen_Bud\n\nFormat                                   : AVI\nFile size                                : 1.41 GiB\nDuration                                 : 2h 19mn\nOverall bit rate                         : 1 452 Kbps\n\nVideo\n\nFormat                                   : MPEG-4 Visual\nFormat settings, Matrix                  : Default (H.263)\nCodec ID                                 : XVID\nDuration                                 : 2h 19mn\nBit rate                                 : 1 057 Kbps\nWidth                                    : 716 pixels\nHeight                                   : 568 pixels\nDisplay aspect ratio                     : 16:9\nFrame rate                               : 25.000 fps\nColor space                              : YUV\nBits/(Pixel*Frame)                       : 0.104\nStream size                              : 1.03 GiB (73%)\nWriting library                          : XviD 1.1.2 \n\nAudio\n\nFormat                                   : AC-3\nFormat settings, Endianness              : Big\nCodec ID                                 : 2000\nDuration                                 : 2h 19mn\nBit rate mode                            : Constant\nBit rate                                 : 384 Kbps\nChannel(s)                               : 6 channels\nChannel positions                        : Front: L C R, Side: L R, LFE\nSampling rate                            : 48.0 KHz\nBit depth                                : 16 bits\nCompression mode                         : Lossy\nStream size                              : 382 MiB (26%)\n\n----------------------------------------------------------------------\nDrama |                      Ratings: 8.0/10\n                                                         &lt;a href=&quot;\nhttp://www.imdb.com/title/tt0087884/&quot; rel=&quot;nofollow&quot; target=&quot;_NEW&quot;&gt;\nhttp://www.imdb.com/title/tt0087884/&lt;/a&gt;\n\n----------------------------------------------------------------------\nA man wanders out of the desert not knowing who he is. His brother finds him, \nand helps to pull his memory back of the life he led before he walked out on \nhis wife and son four years before...\n","torrent":{"xt":"urn:btih:3f3b41bb0c37e98cd56235fac3acaed2cac2eac0","amp;dn":"Paris.Texas.1984.SWESUB.DVDRiP.XViD.AC-3%285.1%29.avi-Zen_Bud","amp;tr":["udp%3A%2F%2Ftracker.openbittorrent.com%3A80","udp%3A%2F%2Fopen.demonii.com%3A1337","udp%3A%2F%2Ftracker.coppersurfer.tk%3A6969","udp%3A%2F%2Fexodus.desync.com%3A6969"],"infoHash":"3f3b41bb0c37e98cd56235fac3acaed2cac2eac0","infoHashBuffer":{"type":"Buffer","data":[63,59,65,187,12,55,233,140,213,98,53,250,195,172,174,210,202,194,234,192]},"announce":[],"urlList":[]}}